<?xml version="1.0" encoding="UTF-8"?>
<svg id="Layer_1" data-name="Layer 1" xmlns="http://www.w3.org/2000/svg" viewBox="0 0 487.92 592.25" fill="#c0c0c0">
  <path d="M445.62,58.44h-116.05v-16.14c0-23.33-18.98-42.3-42.3-42.3h-86.62c-23.33,0-42.3,18.98-42.3,42.3v16.14H42.3C18.98,58.44,0,77.42,0,100.75v28.31c0,4.99,1.09,9.66,2.69,14.1h482.54c1.6-4.44,2.69-9.11,2.69-14.1v-28.31c0-23.33-18.98-42.3-42.3-42.3ZM301.37,58.44h-114.82v-16.14c0-7.77,6.32-14.1,14.1-14.1h86.62c7.78,0,14.1,6.33,14.1,14.1v16.14Z"/>
  <path d="M56.36,527.92c3.22,36.69,33.42,64.34,70.24,64.34h234.71c36.82,0,67.02-27.65,70.24-64.34l31.25-356.55H25.11l31.25,356.55ZM326.64,236.64c.41-7.77,7.04-14.29,14.86-13.28,7.78.44,13.73,7.08,13.29,14.87l-14.31,256.38c-.41,7.49-6.64,13.3-14.06,13.3-.26,0-.54,0-.8-.03-7.78-.44-13.73-7.08-13.29-14.87l14.31-256.38ZM229.86,237.44c0-7.79,6.31-14.1,14.1-14.1s14.1,6.31,14.1,14.1v256.38c0,7.79-6.31,14.1-14.1,14.1s-14.1-6.31-14.1-14.1V237.44ZM146.42,223.36c7.77-.96,14.42,5.51,14.86,13.28l14.31,256.38c.44,7.79-5.51,14.43-13.29,14.87-.26.03-.54.03-.8.03-7.42,0-13.65-5.81-14.06-13.3l-14.31-256.38c-.44-7.79,5.51-14.43,13.29-14.87Z"/>
</svg>