<?xml version="1.0" encoding="utf-8"?>
<!-- Generator: Adobe Illustrator 27.7.0, SVG Export Plug-In . SVG Version: 6.00 Build 0)  -->
<svg version="1.1" id="Capa_1" xmlns="http://www.w3.org/2000/svg" xmlns:xlink="http://www.w3.org/1999/xlink" x="0px" y="0px"
	 viewBox="0 0 438.5 482.1" style="enable-background:new 0 0 438.5 482.1;" xml:space="preserve">
<style type="text/css">
	.st0{fill:#333333;}
</style>
<g>
	<path class="st0" d="M438.3,274.5L438.3,274.5h-0.1c1.8-35.8-5.1-71.4-20.5-104.8c-4-8.9-11.3-15.8-20.7-19.3
		c-9.2-3.5-19.6-3.1-28.3,1c-9,4-16.2,11.7-19.6,21.1c-3.5,9.4-3,20.1,1.3,29c14.6,30.9,17.5,66.4,8.4,99.9l0,0
		c-6.6,23.7-19.2,45.6-37,63.3c-23.8,23.8-55.1,38.7-88.1,41.9c-43.3,4.2-85.7-10.9-116.5-41.5c-30.6-30.3-46-72.3-42.3-115.2
		c3-35.3,19.1-68.3,45.5-92.9c21.5-20.1,48.2-33,76.7-37.5v9.5c0,11.8,6.5,22.7,16.9,28.4c10.4,5.7,23,5.4,32.9-0.8l77.3-48.3
		c9.9-6.2,15.6-16.8,15.4-28.4c-0.2-11.2-6.1-21.2-15.7-26.9L247,4.9l-0.3-0.2c-10.1-6.1-22.8-6.3-33-0.5
		c-10.1,5.7-16.5,16.6-16.5,28.3v12.2c-46.3,4.5-90,23.5-124.6,54.5C33.2,134.5,8,182.9,1.6,235.8c-7.7,64.3,12.9,128.3,56.7,175.6
		c41.9,45.3,100.4,70.7,161.8,70.7c3.1,0,6.2-0.1,9.3-0.2c54-2.5,105.2-25.1,144.2-63.7C412.6,379.5,435.6,328.5,438.3,274.5h0.1
		H438.3z"/>
	<path class="st0" d="M438.3,274.5c0.3-7,0.3-14,0-21V274.5z"/>
</g>
</svg>
