<?xml version="1.0" encoding="utf-8"?>
<!-- Generator: Adobe Illustrator 28.2.0, SVG Export Plug-In . SVG Version: 6.00 Build 0)  -->
<svg version="1.1" id="Capa_1" xmlns="http://www.w3.org/2000/svg" xmlns:xlink="http://www.w3.org/1999/xlink" x="0px" y="0px"
	 viewBox="0 0 375 375" style="enable-background:new 0 0 375 375;" xml:space="preserve">
<style type="text/css">
	.st0{fill:#C0C000;}
	.st1{fill:#0000C0;}
	.st2{fill:#C00000;}
	.st3{fill:#008000;}
</style>
<path class="st0" d="M170.4,270.5L170.4,270.5L170.4,270.5c-33-6.8-59.1-32.8-65.8-65.9l0,0c-0.9-4.4-4.8-7.6-9.3-7.8l-84.7-4.1
	c-6.2-0.3-11.1,5-10.4,11.2c10,89.8,81.3,161.1,171.1,171.1c6.1,0.7,11.5-4.2,11.2-10.4l-4.1-84.7
	C178,275.3,174.8,271.4,170.4,270.5z"/>
<path class="st1" d="M270.5,204.6L270.5,204.6L270.5,204.6c-6.8,33-32.8,59.1-65.9,65.8l0,0c-4.4,0.9-7.6,4.8-7.8,9.3l-4.1,84.7
	c-0.3,6.2,5,11.1,11.2,10.4c89.8-10,161.1-81.3,171.1-171.1c0.7-6.1-4.2-11.5-10.4-11.2l-84.7,4.1
	C275.3,197,271.4,200.2,270.5,204.6z"/>
<path class="st2" d="M204.6,104.5L204.6,104.5L204.6,104.5c33,6.8,59.1,32.8,65.8,65.9l0,0c0.9,4.4,4.8,7.6,9.3,7.8l84.7,4.1
	c6.2,0.3,11.1-5,10.4-11.2c-10-89.8-81.3-161.1-171.1-171.1c-6.1-0.7-11.5,4.2-11.2,10.4l4.1,84.7C197,99.7,200.2,103.6,204.6,104.5
	z"/>
<path class="st3" d="M104.5,170.4L104.5,170.4L104.5,170.4c6.8-33,32.8-59.1,65.9-65.8l0,0c4.4-0.9,7.6-4.8,7.8-9.3l4.1-84.7
	c0.3-6.2-5-11.1-11.2-10.4C81.4,10.1,10.1,81.4,0.1,171.2c-0.7,6.1,4.2,11.5,10.4,11.2l84.7-4.1C99.7,178,103.6,174.8,104.5,170.4z"
	/>
</svg>
