<?xml version="1.0" encoding="UTF-8"?>
<svg id="Capa_1" data-name="Capa 1" xmlns="http://www.w3.org/2000/svg" viewBox="0 0 560.56 107.86" fill="url(#gradient)">
    <linearGradient id="gradient" x1="0%" y1="0%" x2="0%" y2="100%">
          <stop offset="0%" stop-color="#c0c0c0"/>
          <stop offset="100%" stop-color="#4a4a4a"/>
    </linearGradient>
  <path d="m155.63,107.86h-35.91V0h35.91v107.86Z"/>
  <path d="m281.5,0h39.22c10.28,0,15.42,5.86,15.42,17.57v90.29h-35.91V20.02c0-2.81-.39-4.67-1.17-5.56-.78-.89-2.41-1.33-4.88-1.33h-17.17c-4.95,0-7.42,2.82-7.42,8.45v86.29h-35.71V20.02c0-2.81-.39-4.67-1.17-5.56s-2.41-1.33-4.88-1.33h-18.54c-4.68,0-7.03,2.3-7.03,6.89v87.85h-35.91V0h35.91v6.23c1.56-4.15,5.2-6.23,10.93-6.23h40.98c7.81,0,12.62,3.34,14.44,10.01,1.56-6.67,5.85-10.01,12.88-10.01Z"/>
  <path d="m358.78,0h73.77c10.28,0,15.42,5.86,15.42,17.57v72.72c0,11.71-5.14,17.57-15.42,17.57h-73.77c-10.28,0-15.42-5.86-15.42-17.57V17.57c0-11.71,5.14-17.57,15.42-17.57Zm53.47,87.85V20.02c0-2.81-.39-4.67-1.17-5.56s-2.41-1.33-4.88-1.33h-21.08c-2.47,0-4.1.45-4.88,1.33-.78.89-1.17,2.75-1.17,5.56v67.83c0,2.97.39,4.86,1.17,5.67.78.82,2.41,1.22,4.88,1.22h21.08c2.47,0,4.1-.41,4.88-1.22.78-.81,1.17-2.7,1.17-5.67Z"/>
  <path d="m503.58,0h41.57c10.28,0,15.42,5.86,15.42,17.57v90.29h-35.91V20.02c0-2.81-.36-4.67-1.07-5.56-.72-.89-2.38-1.33-4.98-1.33h-19.12c-4.68,0-7.03,2.3-7.03,6.89v87.85h-35.91V0h35.91v6.45c1.82-4.3,5.53-6.45,11.12-6.45Z"/>
  <path d="m71.92,87.85v-20.24c0-2.81-.44-4.67-1.32-5.56-.88-.89-2.71-1.33-5.5-1.33H17.38C5.79,60.71,0,54.86,0,43.15v-25.58C0,5.86,5.79,0,17.38,0h75.88c11.58,0,17.38,5.86,17.38,17.57v16.01h-39.15v-13.57c0-2.81-.44-4.67-1.32-5.56-.88-.89-2.71-1.33-5.5-1.33h-17.38c-2.94,0-4.8.44-5.61,1.33-.81.89-1.21,2.75-1.21,5.56v20.68c0,2.97.4,4.86,1.21,5.67.8.82,2.67,1.22,5.61,1.22h47.51c11.58,0,17.38,5.86,17.38,17.57v25.13c0,11.71-5.79,17.57-17.38,17.57H18.25c-11.58,0-17.38-5.86-17.38-17.57v-16.01h39.37v13.57c0,2.97.44,4.86,1.32,5.67.88.82,2.71,1.22,5.5,1.22h18.04c2.78,0,4.62-.41,5.5-1.22.88-.81,1.32-2.7,1.32-5.67Z"/>
</svg>